<mxfile host="app.diagrams.net" modified="2023-11-21T19:36:13.492Z" agent="Mozilla/5.0 (Windows NT 10.0; Win64; x64) AppleWebKit/537.36 (KHTML, like Gecko) Chrome/119.0.0.0 Safari/537.36 Edg/119.0.0.0" etag="PxV-de_m1trSdrMlpYF4" version="22.1.3" type="github" pages="2">
  <diagram id="A2C2Q2pojkIYCGYaJzWY" name="Page-2">
    <mxGraphModel dx="1042" dy="535" grid="1" gridSize="10" guides="1" tooltips="1" connect="1" arrows="1" fold="1" page="1" pageScale="1" pageWidth="850" pageHeight="1100" math="0" shadow="0">
      <root>
        <mxCell id="0" />
        <mxCell id="1" parent="0" />
        <mxCell id="o286NiAg4xvra417wo8r-1" value="System" style="ellipse;whiteSpace=wrap;html=1;" vertex="1" parent="1">
          <mxGeometry x="340" y="200" width="120" height="80" as="geometry" />
        </mxCell>
        <mxCell id="o286NiAg4xvra417wo8r-2" value="Student" style="rounded=1;whiteSpace=wrap;html=1;" vertex="1" parent="1">
          <mxGeometry x="600" y="90" width="120" height="60" as="geometry" />
        </mxCell>
        <mxCell id="o286NiAg4xvra417wo8r-3" value="Teacher" style="rounded=1;whiteSpace=wrap;html=1;" vertex="1" parent="1">
          <mxGeometry x="90" y="60" width="120" height="60" as="geometry" />
        </mxCell>
        <mxCell id="o286NiAg4xvra417wo8r-4" value="admin" style="rounded=1;whiteSpace=wrap;html=1;" vertex="1" parent="1">
          <mxGeometry x="690" y="210" width="120" height="60" as="geometry" />
        </mxCell>
        <mxCell id="o286NiAg4xvra417wo8r-5" value="administrators&lt;span style=&quot;color: rgb(34, 34, 34); font-family: &amp;quot;Helvetica Neue&amp;quot;, Helvetica, Arial, sans-serif; font-size: 13px; text-align: start;&quot;&gt;&amp;nbsp;&lt;/span&gt;" style="rounded=1;whiteSpace=wrap;html=1;" vertex="1" parent="1">
          <mxGeometry x="50" y="220" width="120" height="60" as="geometry" />
        </mxCell>
        <mxCell id="o286NiAg4xvra417wo8r-44" style="edgeStyle=orthogonalEdgeStyle;rounded=0;orthogonalLoop=1;jettySize=auto;html=1;entryX=0.5;entryY=1;entryDx=0;entryDy=0;startArrow=classic;startFill=1;" edge="1" parent="1" source="o286NiAg4xvra417wo8r-6" target="o286NiAg4xvra417wo8r-1">
          <mxGeometry relative="1" as="geometry">
            <Array as="points">
              <mxPoint x="400" y="390" />
            </Array>
          </mxGeometry>
        </mxCell>
        <mxCell id="o286NiAg4xvra417wo8r-47" style="edgeStyle=orthogonalEdgeStyle;rounded=0;orthogonalLoop=1;jettySize=auto;html=1;entryX=1;entryY=1;entryDx=0;entryDy=0;" edge="1" parent="1" source="o286NiAg4xvra417wo8r-6" target="o286NiAg4xvra417wo8r-1">
          <mxGeometry relative="1" as="geometry">
            <Array as="points">
              <mxPoint x="580" y="268" />
            </Array>
          </mxGeometry>
        </mxCell>
        <mxCell id="o286NiAg4xvra417wo8r-50" value="statistics" style="edgeLabel;html=1;align=center;verticalAlign=middle;resizable=0;points=[];" vertex="1" connectable="0" parent="o286NiAg4xvra417wo8r-47">
          <mxGeometry x="0.3449" y="-4" relative="1" as="geometry">
            <mxPoint as="offset" />
          </mxGeometry>
        </mxCell>
        <mxCell id="o286NiAg4xvra417wo8r-6" value="trainning department&lt;span style=&quot;color: rgb(34, 34, 34); font-family: &amp;quot;Helvetica Neue&amp;quot;, Helvetica, Arial, sans-serif; font-size: 13px; text-align: start;&quot;&gt;&amp;nbsp;&lt;/span&gt;" style="rounded=1;whiteSpace=wrap;html=1;" vertex="1" parent="1">
          <mxGeometry x="480" y="370" width="150" height="60" as="geometry" />
        </mxCell>
        <mxCell id="o286NiAg4xvra417wo8r-17" value="" style="endArrow=classic;startArrow=classic;html=1;rounded=0;entryX=1;entryY=0.25;entryDx=0;entryDy=0;exitX=0.5;exitY=0;exitDx=0;exitDy=0;" edge="1" parent="1" source="o286NiAg4xvra417wo8r-1" target="o286NiAg4xvra417wo8r-3">
          <mxGeometry width="50" height="50" relative="1" as="geometry">
            <mxPoint x="330" y="150" as="sourcePoint" />
            <mxPoint x="380" y="100" as="targetPoint" />
            <Array as="points">
              <mxPoint x="400" y="75" />
            </Array>
          </mxGeometry>
        </mxCell>
        <mxCell id="o286NiAg4xvra417wo8r-18" value="Mark" style="edgeLabel;html=1;align=center;verticalAlign=middle;resizable=0;points=[];" vertex="1" connectable="0" parent="o286NiAg4xvra417wo8r-17">
          <mxGeometry x="0.4108" y="-5" relative="1" as="geometry">
            <mxPoint as="offset" />
          </mxGeometry>
        </mxCell>
        <mxCell id="o286NiAg4xvra417wo8r-19" value="" style="endArrow=classic;startArrow=classic;html=1;rounded=0;entryX=1;entryY=0.5;entryDx=0;entryDy=0;exitX=0.37;exitY=-0.005;exitDx=0;exitDy=0;exitPerimeter=0;startFill=1;endFill=1;" edge="1" parent="1" source="o286NiAg4xvra417wo8r-1" target="o286NiAg4xvra417wo8r-3">
          <mxGeometry width="50" height="50" relative="1" as="geometry">
            <mxPoint x="280" y="180" as="sourcePoint" />
            <mxPoint x="330" y="130" as="targetPoint" />
            <Array as="points">
              <mxPoint x="384" y="90" />
            </Array>
          </mxGeometry>
        </mxCell>
        <mxCell id="o286NiAg4xvra417wo8r-20" value="Test" style="edgeLabel;html=1;align=center;verticalAlign=middle;resizable=0;points=[];" vertex="1" connectable="0" parent="o286NiAg4xvra417wo8r-19">
          <mxGeometry x="0.3738" y="-4" relative="1" as="geometry">
            <mxPoint as="offset" />
          </mxGeometry>
        </mxCell>
        <mxCell id="o286NiAg4xvra417wo8r-21" value="" style="endArrow=classic;startArrow=classic;html=1;rounded=0;entryX=1;entryY=0.75;entryDx=0;entryDy=0;exitX=0.263;exitY=0.035;exitDx=0;exitDy=0;exitPerimeter=0;" edge="1" parent="1" source="o286NiAg4xvra417wo8r-1" target="o286NiAg4xvra417wo8r-3">
          <mxGeometry width="50" height="50" relative="1" as="geometry">
            <mxPoint x="210" y="200" as="sourcePoint" />
            <mxPoint x="260" y="150" as="targetPoint" />
            <Array as="points">
              <mxPoint x="372" y="105" />
            </Array>
          </mxGeometry>
        </mxCell>
        <mxCell id="o286NiAg4xvra417wo8r-22" value="evaluate" style="edgeLabel;html=1;align=center;verticalAlign=middle;resizable=0;points=[];" vertex="1" connectable="0" parent="o286NiAg4xvra417wo8r-21">
          <mxGeometry x="0.4011" relative="1" as="geometry">
            <mxPoint as="offset" />
          </mxGeometry>
        </mxCell>
        <mxCell id="o286NiAg4xvra417wo8r-23" value="" style="endArrow=classic;startArrow=classic;html=1;rounded=0;entryX=0.75;entryY=1;entryDx=0;entryDy=0;exitX=0;exitY=0;exitDx=0;exitDy=0;" edge="1" parent="1" source="o286NiAg4xvra417wo8r-1" target="o286NiAg4xvra417wo8r-3">
          <mxGeometry width="50" height="50" relative="1" as="geometry">
            <mxPoint x="130" y="240" as="sourcePoint" />
            <mxPoint x="180" y="190" as="targetPoint" />
            <Array as="points">
              <mxPoint x="180" y="210" />
              <mxPoint x="180" y="190" />
            </Array>
          </mxGeometry>
        </mxCell>
        <mxCell id="o286NiAg4xvra417wo8r-24" value="complaints, re -examination&lt;span style=&quot;color: rgb(34, 34, 34); font-family: &amp;quot;Helvetica Neue&amp;quot;, Helvetica, Arial, sans-serif; font-size: 13px; text-align: start;&quot;&gt;&amp;nbsp;&lt;/span&gt;" style="edgeLabel;html=1;align=center;verticalAlign=middle;resizable=0;points=[];" vertex="1" connectable="0" parent="o286NiAg4xvra417wo8r-23">
          <mxGeometry x="0.3008" relative="1" as="geometry">
            <mxPoint x="76" y="-10" as="offset" />
          </mxGeometry>
        </mxCell>
        <mxCell id="o286NiAg4xvra417wo8r-25" value="" style="endArrow=classic;startArrow=classic;html=1;rounded=0;entryX=0;entryY=0.25;entryDx=0;entryDy=0;exitX=0.677;exitY=0.044;exitDx=0;exitDy=0;exitPerimeter=0;" edge="1" parent="1" source="o286NiAg4xvra417wo8r-1" target="o286NiAg4xvra417wo8r-2">
          <mxGeometry width="50" height="50" relative="1" as="geometry">
            <mxPoint x="490" y="170" as="sourcePoint" />
            <mxPoint x="540" y="120" as="targetPoint" />
            <Array as="points">
              <mxPoint x="420" y="105" />
            </Array>
          </mxGeometry>
        </mxCell>
        <mxCell id="o286NiAg4xvra417wo8r-26" value="check points&lt;span style=&quot;color: rgb(34, 34, 34); font-family: &amp;quot;Helvetica Neue&amp;quot;, Helvetica, Arial, sans-serif; font-size: 13px; text-align: start;&quot;&gt;&amp;nbsp;&lt;/span&gt;" style="edgeLabel;html=1;align=center;verticalAlign=middle;resizable=0;points=[];" vertex="1" connectable="0" parent="o286NiAg4xvra417wo8r-25">
          <mxGeometry x="0.2877" y="3" relative="1" as="geometry">
            <mxPoint as="offset" />
          </mxGeometry>
        </mxCell>
        <mxCell id="o286NiAg4xvra417wo8r-27" value="" style="endArrow=classic;startArrow=classic;html=1;rounded=0;entryX=0;entryY=0.5;entryDx=0;entryDy=0;exitX=0.777;exitY=0.075;exitDx=0;exitDy=0;exitPerimeter=0;" edge="1" parent="1" source="o286NiAg4xvra417wo8r-1" target="o286NiAg4xvra417wo8r-2">
          <mxGeometry width="50" height="50" relative="1" as="geometry">
            <mxPoint x="500" y="290" as="sourcePoint" />
            <mxPoint x="550" y="240" as="targetPoint" />
            <Array as="points">
              <mxPoint x="433" y="120" />
            </Array>
          </mxGeometry>
        </mxCell>
        <mxCell id="o286NiAg4xvra417wo8r-28" value="learning management&lt;span style=&quot;color: rgb(34, 34, 34); font-family: &amp;quot;Helvetica Neue&amp;quot;, Helvetica, Arial, sans-serif; font-size: 13px; text-align: start;&quot;&gt;&amp;nbsp;&lt;/span&gt;" style="edgeLabel;html=1;align=center;verticalAlign=middle;resizable=0;points=[];" vertex="1" connectable="0" parent="o286NiAg4xvra417wo8r-27">
          <mxGeometry x="0.2949" relative="1" as="geometry">
            <mxPoint as="offset" />
          </mxGeometry>
        </mxCell>
        <mxCell id="o286NiAg4xvra417wo8r-30" value="" style="endArrow=none;startArrow=classic;html=1;rounded=0;entryX=0;entryY=0.25;entryDx=0;entryDy=0;exitX=0.983;exitY=0.315;exitDx=0;exitDy=0;exitPerimeter=0;endFill=0;" edge="1" parent="1" source="o286NiAg4xvra417wo8r-1" target="o286NiAg4xvra417wo8r-4">
          <mxGeometry width="50" height="50" relative="1" as="geometry">
            <mxPoint x="520" y="300" as="sourcePoint" />
            <mxPoint x="570" y="250" as="targetPoint" />
          </mxGeometry>
        </mxCell>
        <mxCell id="o286NiAg4xvra417wo8r-31" value="debug" style="edgeLabel;html=1;align=center;verticalAlign=middle;resizable=0;points=[];" vertex="1" connectable="0" parent="o286NiAg4xvra417wo8r-30">
          <mxGeometry x="0.0503" y="2" relative="1" as="geometry">
            <mxPoint as="offset" />
          </mxGeometry>
        </mxCell>
        <mxCell id="o286NiAg4xvra417wo8r-32" value="" style="endArrow=classic;startArrow=classic;html=1;rounded=0;entryX=0;entryY=0.5;entryDx=0;entryDy=0;exitX=1;exitY=0.5;exitDx=0;exitDy=0;" edge="1" parent="1" source="o286NiAg4xvra417wo8r-1" target="o286NiAg4xvra417wo8r-4">
          <mxGeometry width="50" height="50" relative="1" as="geometry">
            <mxPoint x="480" y="310" as="sourcePoint" />
            <mxPoint x="530" y="260" as="targetPoint" />
          </mxGeometry>
        </mxCell>
        <mxCell id="o286NiAg4xvra417wo8r-33" value="technical assistance&lt;span style=&quot;color: rgb(34, 34, 34); font-family: &amp;quot;Helvetica Neue&amp;quot;, Helvetica, Arial, sans-serif; font-size: 13px; text-align: start;&quot;&gt;&amp;nbsp;&lt;/span&gt;" style="edgeLabel;html=1;align=center;verticalAlign=middle;resizable=0;points=[];" vertex="1" connectable="0" parent="o286NiAg4xvra417wo8r-32">
          <mxGeometry x="-0.0029" y="3" relative="1" as="geometry">
            <mxPoint as="offset" />
          </mxGeometry>
        </mxCell>
        <mxCell id="o286NiAg4xvra417wo8r-34" value="" style="endArrow=classic;startArrow=classic;html=1;rounded=0;entryX=0;entryY=0.5;entryDx=0;entryDy=0;exitX=1.013;exitY=0.367;exitDx=0;exitDy=0;exitPerimeter=0;" edge="1" parent="1" source="o286NiAg4xvra417wo8r-5" target="o286NiAg4xvra417wo8r-1">
          <mxGeometry width="50" height="50" relative="1" as="geometry">
            <mxPoint x="180" y="260" as="sourcePoint" />
            <mxPoint x="230" y="210" as="targetPoint" />
          </mxGeometry>
        </mxCell>
        <mxCell id="o286NiAg4xvra417wo8r-38" value="teacher management&lt;span style=&quot;color: rgb(34, 34, 34); font-family: &amp;quot;Helvetica Neue&amp;quot;, Helvetica, Arial, sans-serif; font-size: 13px; text-align: start;&quot;&gt;&amp;nbsp;&lt;/span&gt;" style="edgeLabel;html=1;align=center;verticalAlign=middle;resizable=0;points=[];" vertex="1" connectable="0" parent="o286NiAg4xvra417wo8r-34">
          <mxGeometry x="-0.2131" y="2" relative="1" as="geometry">
            <mxPoint y="-9" as="offset" />
          </mxGeometry>
        </mxCell>
        <mxCell id="o286NiAg4xvra417wo8r-35" value="" style="endArrow=classic;startArrow=classic;html=1;rounded=0;entryX=0.023;entryY=0.705;entryDx=0;entryDy=0;entryPerimeter=0;exitX=1.013;exitY=0.633;exitDx=0;exitDy=0;exitPerimeter=0;" edge="1" parent="1" source="o286NiAg4xvra417wo8r-5" target="o286NiAg4xvra417wo8r-1">
          <mxGeometry width="50" height="50" relative="1" as="geometry">
            <mxPoint x="260" y="350" as="sourcePoint" />
            <mxPoint x="310" y="300" as="targetPoint" />
          </mxGeometry>
        </mxCell>
        <mxCell id="o286NiAg4xvra417wo8r-40" value="create point spreadsheets&lt;span style=&quot;color: rgb(34, 34, 34); font-family: &amp;quot;Helvetica Neue&amp;quot;, Helvetica, Arial, sans-serif; font-size: 13px; text-align: start;&quot;&gt;&amp;nbsp;&lt;/span&gt;" style="edgeLabel;html=1;align=center;verticalAlign=middle;resizable=0;points=[];" vertex="1" connectable="0" parent="o286NiAg4xvra417wo8r-35">
          <mxGeometry x="-0.2964" y="-1" relative="1" as="geometry">
            <mxPoint x="28" y="-8" as="offset" />
          </mxGeometry>
        </mxCell>
        <mxCell id="o286NiAg4xvra417wo8r-36" value="" style="endArrow=classic;startArrow=classic;html=1;rounded=0;exitX=1.04;exitY=0.873;exitDx=0;exitDy=0;exitPerimeter=0;entryX=0;entryY=1;entryDx=0;entryDy=0;" edge="1" parent="1" source="o286NiAg4xvra417wo8r-5" target="o286NiAg4xvra417wo8r-1">
          <mxGeometry width="50" height="50" relative="1" as="geometry">
            <mxPoint x="230" y="340" as="sourcePoint" />
            <mxPoint x="280" y="290" as="targetPoint" />
          </mxGeometry>
        </mxCell>
        <mxCell id="o286NiAg4xvra417wo8r-37" value="processing complaints&lt;span style=&quot;color: rgb(34, 34, 34); font-family: &amp;quot;Helvetica Neue&amp;quot;, Helvetica, Arial, sans-serif; font-size: 13px; text-align: start;&quot;&gt;&amp;nbsp;&lt;/span&gt;" style="edgeLabel;html=1;align=center;verticalAlign=middle;resizable=0;points=[];" vertex="1" connectable="0" parent="o286NiAg4xvra417wo8r-36">
          <mxGeometry x="-0.1789" y="1" relative="1" as="geometry">
            <mxPoint x="10" as="offset" />
          </mxGeometry>
        </mxCell>
        <mxCell id="o286NiAg4xvra417wo8r-45" style="edgeStyle=orthogonalEdgeStyle;rounded=0;orthogonalLoop=1;jettySize=auto;html=1;entryX=0.337;entryY=1.045;entryDx=0;entryDy=0;entryPerimeter=0;startArrow=classic;startFill=1;" edge="1" parent="1" source="o286NiAg4xvra417wo8r-6" target="o286NiAg4xvra417wo8r-1">
          <mxGeometry relative="1" as="geometry">
            <Array as="points">
              <mxPoint x="380" y="410" />
            </Array>
          </mxGeometry>
        </mxCell>
        <mxCell id="o286NiAg4xvra417wo8r-53" value="re -examination&lt;span style=&quot;color: rgb(34, 34, 34); font-family: &amp;quot;Helvetica Neue&amp;quot;, Helvetica, Arial, sans-serif; font-size: 13px; text-align: start;&quot;&gt;&amp;nbsp;&lt;/span&gt;" style="edgeLabel;html=1;align=center;verticalAlign=middle;resizable=0;points=[];" vertex="1" connectable="0" parent="o286NiAg4xvra417wo8r-45">
          <mxGeometry x="-0.3345" y="1" relative="1" as="geometry">
            <mxPoint x="20" as="offset" />
          </mxGeometry>
        </mxCell>
        <mxCell id="o286NiAg4xvra417wo8r-49" style="edgeStyle=orthogonalEdgeStyle;rounded=0;orthogonalLoop=1;jettySize=auto;html=1;entryX=0.763;entryY=1.005;entryDx=0;entryDy=0;entryPerimeter=0;" edge="1" parent="1" source="o286NiAg4xvra417wo8r-6" target="o286NiAg4xvra417wo8r-1">
          <mxGeometry relative="1" as="geometry">
            <Array as="points">
              <mxPoint x="555" y="280" />
            </Array>
          </mxGeometry>
        </mxCell>
        <mxCell id="o286NiAg4xvra417wo8r-51" value="records management&lt;span style=&quot;color: rgb(34, 34, 34); font-family: &amp;quot;Helvetica Neue&amp;quot;, Helvetica, Arial, sans-serif; font-size: 13px; text-align: start;&quot;&gt;&amp;nbsp;&lt;/span&gt;" style="edgeLabel;html=1;align=center;verticalAlign=middle;resizable=0;points=[];" vertex="1" connectable="0" parent="o286NiAg4xvra417wo8r-49">
          <mxGeometry x="0.3218" y="-3" relative="1" as="geometry">
            <mxPoint x="-4" y="13" as="offset" />
          </mxGeometry>
        </mxCell>
        <mxCell id="o286NiAg4xvra417wo8r-52" value="processing complaints&lt;span style=&quot;color: rgb(34, 34, 34); font-family: &amp;quot;Helvetica Neue&amp;quot;, Helvetica, Arial, sans-serif; font-size: 13px; text-align: start;&quot;&gt;&amp;nbsp;&lt;/span&gt;" style="text;html=1;align=center;verticalAlign=middle;resizable=0;points=[];autosize=1;strokeColor=none;fillColor=none;" vertex="1" parent="1">
          <mxGeometry x="390" y="340" width="150" height="30" as="geometry" />
        </mxCell>
        <mxCell id="o286NiAg4xvra417wo8r-54" style="edgeStyle=orthogonalEdgeStyle;rounded=0;orthogonalLoop=1;jettySize=auto;html=1;entryX=0.197;entryY=0.945;entryDx=0;entryDy=0;entryPerimeter=0;" edge="1" parent="1" source="o286NiAg4xvra417wo8r-6" target="o286NiAg4xvra417wo8r-1">
          <mxGeometry relative="1" as="geometry">
            <Array as="points">
              <mxPoint x="555" y="440" />
              <mxPoint x="370" y="440" />
              <mxPoint x="370" y="276" />
            </Array>
          </mxGeometry>
        </mxCell>
        <mxCell id="o286NiAg4xvra417wo8r-56" value="credit registration time&lt;span style=&quot;color: rgb(34, 34, 34); font-family: &amp;quot;Helvetica Neue&amp;quot;, Helvetica, Arial, sans-serif; font-size: 13px; text-align: start;&quot;&gt;&amp;nbsp;&lt;/span&gt;" style="edgeLabel;html=1;align=center;verticalAlign=middle;resizable=0;points=[];" vertex="1" connectable="0" parent="o286NiAg4xvra417wo8r-54">
          <mxGeometry x="-0.3537" y="3" relative="1" as="geometry">
            <mxPoint as="offset" />
          </mxGeometry>
        </mxCell>
        <mxCell id="o286NiAg4xvra417wo8r-57" style="edgeStyle=orthogonalEdgeStyle;rounded=0;orthogonalLoop=1;jettySize=auto;html=1;entryX=1.017;entryY=0.655;entryDx=0;entryDy=0;entryPerimeter=0;" edge="1" parent="1" source="o286NiAg4xvra417wo8r-6" target="o286NiAg4xvra417wo8r-1">
          <mxGeometry relative="1" as="geometry">
            <Array as="points">
              <mxPoint x="610" y="252" />
            </Array>
          </mxGeometry>
        </mxCell>
        <mxCell id="o286NiAg4xvra417wo8r-58" value="advise&lt;span style=&quot;color: rgb(34, 34, 34); font-family: &amp;quot;Helvetica Neue&amp;quot;, Helvetica, Arial, sans-serif; font-size: 13px; text-align: start;&quot;&gt;&amp;nbsp;&lt;/span&gt;" style="edgeLabel;html=1;align=center;verticalAlign=middle;resizable=0;points=[];" vertex="1" connectable="0" parent="o286NiAg4xvra417wo8r-57">
          <mxGeometry x="0.211" y="-2" relative="1" as="geometry">
            <mxPoint as="offset" />
          </mxGeometry>
        </mxCell>
      </root>
    </mxGraphModel>
  </diagram>
  <diagram id="8E8P8pJOvjoC4LiPrjxY" name="Page-3">
    <mxGraphModel dx="1042" dy="535" grid="1" gridSize="10" guides="1" tooltips="1" connect="1" arrows="1" fold="1" page="1" pageScale="1" pageWidth="850" pageHeight="1100" math="0" shadow="0">
      <root>
        <mxCell id="0" />
        <mxCell id="1" parent="0" />
        <mxCell id="js6V3GcnMLULvY7ToonK-1" style="edgeStyle=orthogonalEdgeStyle;rounded=0;orthogonalLoop=1;jettySize=auto;html=1;" edge="1" parent="1" source="js6V3GcnMLULvY7ToonK-2" target="js6V3GcnMLULvY7ToonK-4">
          <mxGeometry relative="1" as="geometry" />
        </mxCell>
        <mxCell id="js6V3GcnMLULvY7ToonK-2" value="show the login screen&lt;span style=&quot;color: rgb(34, 34, 34); font-family: &amp;quot;Helvetica Neue&amp;quot;, Helvetica, Arial, sans-serif; font-size: 13px; text-align: start;&quot;&gt;&amp;nbsp;&lt;/span&gt;" style="rounded=1;whiteSpace=wrap;html=1;" vertex="1" parent="1">
          <mxGeometry x="245" y="120" width="120" height="60" as="geometry" />
        </mxCell>
        <mxCell id="js6V3GcnMLULvY7ToonK-3" style="edgeStyle=orthogonalEdgeStyle;rounded=0;orthogonalLoop=1;jettySize=auto;html=1;entryX=0.5;entryY=0;entryDx=0;entryDy=0;" edge="1" parent="1" source="js6V3GcnMLULvY7ToonK-4" target="js6V3GcnMLULvY7ToonK-6">
          <mxGeometry relative="1" as="geometry" />
        </mxCell>
        <mxCell id="js6V3GcnMLULvY7ToonK-4" value="account, password&lt;span style=&quot;color: rgb(34, 34, 34); font-family: &amp;quot;Helvetica Neue&amp;quot;, Helvetica, Arial, sans-serif; font-size: 13px; text-align: start;&quot;&gt;&amp;nbsp;&lt;/span&gt;" style="rounded=1;whiteSpace=wrap;html=1;" vertex="1" parent="1">
          <mxGeometry x="245" y="240" width="120" height="60" as="geometry" />
        </mxCell>
        <mxCell id="js6V3GcnMLULvY7ToonK-5" style="edgeStyle=orthogonalEdgeStyle;rounded=0;orthogonalLoop=1;jettySize=auto;html=1;" edge="1" parent="1" source="js6V3GcnMLULvY7ToonK-6" target="js6V3GcnMLULvY7ToonK-15">
          <mxGeometry relative="1" as="geometry" />
        </mxCell>
        <mxCell id="js6V3GcnMLULvY7ToonK-6" value="Login" style="rounded=1;whiteSpace=wrap;html=1;" vertex="1" parent="1">
          <mxGeometry x="245" y="370" width="120" height="60" as="geometry" />
        </mxCell>
        <mxCell id="js6V3GcnMLULvY7ToonK-7" style="edgeStyle=orthogonalEdgeStyle;rounded=0;orthogonalLoop=1;jettySize=auto;html=1;entryX=1;entryY=0.5;entryDx=0;entryDy=0;" edge="1" parent="1" source="js6V3GcnMLULvY7ToonK-8" target="js6V3GcnMLULvY7ToonK-4">
          <mxGeometry relative="1" as="geometry">
            <Array as="points">
              <mxPoint x="620" y="270" />
            </Array>
          </mxGeometry>
        </mxCell>
        <mxCell id="js6V3GcnMLULvY7ToonK-8" value="incorrect import notice&lt;span style=&quot;color: rgb(34, 34, 34); font-family: &amp;quot;Helvetica Neue&amp;quot;, Helvetica, Arial, sans-serif; font-size: 13px; text-align: start;&quot;&gt;&amp;nbsp;&lt;/span&gt;" style="rounded=1;whiteSpace=wrap;html=1;" vertex="1" parent="1">
          <mxGeometry x="570" y="420" width="120" height="60" as="geometry" />
        </mxCell>
        <mxCell id="js6V3GcnMLULvY7ToonK-9" style="edgeStyle=orthogonalEdgeStyle;rounded=0;orthogonalLoop=1;jettySize=auto;html=1;" edge="1" parent="1" source="js6V3GcnMLULvY7ToonK-15" target="js6V3GcnMLULvY7ToonK-8">
          <mxGeometry relative="1" as="geometry">
            <Array as="points">
              <mxPoint x="630" y="540" />
            </Array>
          </mxGeometry>
        </mxCell>
        <mxCell id="js6V3GcnMLULvY7ToonK-10" value="invalid information&lt;span style=&quot;color: rgb(34, 34, 34); font-family: &amp;quot;Helvetica Neue&amp;quot;, Helvetica, Arial, sans-serif; font-size: 13px; text-align: start;&quot;&gt;&amp;nbsp;&lt;/span&gt;" style="edgeLabel;html=1;align=center;verticalAlign=middle;resizable=0;points=[];" vertex="1" connectable="0" parent="js6V3GcnMLULvY7ToonK-9">
          <mxGeometry x="-0.3134" y="3" relative="1" as="geometry">
            <mxPoint x="6" y="-17" as="offset" />
          </mxGeometry>
        </mxCell>
        <mxCell id="js6V3GcnMLULvY7ToonK-11" style="edgeStyle=orthogonalEdgeStyle;rounded=0;orthogonalLoop=1;jettySize=auto;html=1;entryX=0.5;entryY=0;entryDx=0;entryDy=0;" edge="1" parent="1" source="js6V3GcnMLULvY7ToonK-15" target="js6V3GcnMLULvY7ToonK-17">
          <mxGeometry relative="1" as="geometry" />
        </mxCell>
        <mxCell id="js6V3GcnMLULvY7ToonK-12" value="valid information&lt;span style=&quot;color: rgb(34, 34, 34); font-family: &amp;quot;Helvetica Neue&amp;quot;, Helvetica, Arial, sans-serif; font-size: 13px; text-align: start;&quot;&gt;&amp;nbsp;&lt;/span&gt;" style="edgeLabel;html=1;align=center;verticalAlign=middle;resizable=0;points=[];" vertex="1" connectable="0" parent="js6V3GcnMLULvY7ToonK-11">
          <mxGeometry x="-0.0235" y="2" relative="1" as="geometry">
            <mxPoint x="53" as="offset" />
          </mxGeometry>
        </mxCell>
        <mxCell id="js6V3GcnMLULvY7ToonK-13" style="edgeStyle=orthogonalEdgeStyle;rounded=0;orthogonalLoop=1;jettySize=auto;html=1;entryX=1;entryY=0.5;entryDx=0;entryDy=0;" edge="1" parent="1" source="js6V3GcnMLULvY7ToonK-15" target="js6V3GcnMLULvY7ToonK-22">
          <mxGeometry relative="1" as="geometry" />
        </mxCell>
        <mxCell id="js6V3GcnMLULvY7ToonK-14" value="no information&lt;span style=&quot;color: rgb(34, 34, 34); font-family: &amp;quot;Helvetica Neue&amp;quot;, Helvetica, Arial, sans-serif; font-size: 13px; text-align: start;&quot;&gt;&amp;nbsp;&lt;/span&gt;" style="edgeLabel;html=1;align=center;verticalAlign=middle;resizable=0;points=[];" vertex="1" connectable="0" parent="js6V3GcnMLULvY7ToonK-13">
          <mxGeometry x="-0.1216" y="-6" relative="1" as="geometry">
            <mxPoint x="12" y="-24" as="offset" />
          </mxGeometry>
        </mxCell>
        <mxCell id="js6V3GcnMLULvY7ToonK-15" value="" style="rhombus;whiteSpace=wrap;html=1;" vertex="1" parent="1">
          <mxGeometry x="265" y="500" width="80" height="80" as="geometry" />
        </mxCell>
        <mxCell id="js6V3GcnMLULvY7ToonK-16" style="edgeStyle=orthogonalEdgeStyle;rounded=0;orthogonalLoop=1;jettySize=auto;html=1;" edge="1" parent="1" source="js6V3GcnMLULvY7ToonK-17" target="js6V3GcnMLULvY7ToonK-18">
          <mxGeometry relative="1" as="geometry" />
        </mxCell>
        <mxCell id="js6V3GcnMLULvY7ToonK-17" value="transfer to mydtu homepage&lt;span style=&quot;color: rgb(34, 34, 34); font-family: &amp;quot;Helvetica Neue&amp;quot;, Helvetica, Arial, sans-serif; font-size: 13px; text-align: start;&quot;&gt;&amp;nbsp;&lt;/span&gt;" style="rounded=1;whiteSpace=wrap;html=1;" vertex="1" parent="1">
          <mxGeometry x="245" y="630" width="120" height="60" as="geometry" />
        </mxCell>
        <mxCell id="js6V3GcnMLULvY7ToonK-18" value="" style="ellipse;html=1;shape=endState;fillColor=#000000;strokeColor=#ff0000;" vertex="1" parent="1">
          <mxGeometry x="290" y="740" width="30" height="30" as="geometry" />
        </mxCell>
        <mxCell id="js6V3GcnMLULvY7ToonK-19" value="" style="ellipse;html=1;shape=startState;fillColor=#000000;strokeColor=#ff0000;" vertex="1" parent="1">
          <mxGeometry x="290" y="30" width="30" height="30" as="geometry" />
        </mxCell>
        <mxCell id="js6V3GcnMLULvY7ToonK-20" value="" style="edgeStyle=orthogonalEdgeStyle;html=1;verticalAlign=bottom;endArrow=open;endSize=8;strokeColor=#ff0000;rounded=0;entryX=0.5;entryY=0;entryDx=0;entryDy=0;" edge="1" parent="1" source="js6V3GcnMLULvY7ToonK-19" target="js6V3GcnMLULvY7ToonK-2">
          <mxGeometry relative="1" as="geometry">
            <mxPoint x="95" y="160" as="targetPoint" />
            <Array as="points" />
          </mxGeometry>
        </mxCell>
        <mxCell id="js6V3GcnMLULvY7ToonK-21" style="edgeStyle=orthogonalEdgeStyle;rounded=0;orthogonalLoop=1;jettySize=auto;html=1;entryX=0;entryY=0.5;entryDx=0;entryDy=0;" edge="1" parent="1" source="js6V3GcnMLULvY7ToonK-22" target="js6V3GcnMLULvY7ToonK-18">
          <mxGeometry relative="1" as="geometry">
            <mxPoint x="120.00000000000023" y="730" as="targetPoint" />
            <Array as="points">
              <mxPoint x="120" y="755" />
            </Array>
          </mxGeometry>
        </mxCell>
        <mxCell id="js6V3GcnMLULvY7ToonK-22" value="move to the training room&lt;span style=&quot;color: rgb(34, 34, 34); font-family: &amp;quot;Helvetica Neue&amp;quot;, Helvetica, Arial, sans-serif; font-size: 13px; text-align: start;&quot;&gt;&amp;nbsp;&lt;/span&gt;" style="rounded=1;whiteSpace=wrap;html=1;" vertex="1" parent="1">
          <mxGeometry x="60" y="510" width="120" height="60" as="geometry" />
        </mxCell>
      </root>
    </mxGraphModel>
  </diagram>
</mxfile>
